<?xml version="1.0" standalone="no"?>
<!DOCTYPE svg PUBLIC "-//W3C//DTD SVG 20010904//EN"
 "http://www.w3.org/TR/2001/REC-SVG-20010904/DTD/svg10.dtd">
<svg version="1.0" xmlns="http://www.w3.org/2000/svg"
 width="628.000000pt" height="628.000000pt" viewBox="0 0 628.000000 628.000000"
 preserveAspectRatio="xMidYMid meet">
<metadata>
Created by potrace 1.11, written by Peter Selinger 2001-2013
</metadata>
<g transform="translate(0.000000,628.000000) scale(0.100000,-0.100000)"
fill="#000000" stroke="none">
<path d="M2357 6205 c-50 -17 -85 -50 -108 -100 -18 -38 -19 -98 -19 -1357 l0
-1318 -1017 -1527 c-559 -841 -1034 -1557 -1055 -1593 -29 -50 -38 -75 -38
-110 1 -90 58 -165 145 -189 28 -8 854 -11 2870 -11 2724 0 2832 1 2870 19 50
22 91 69 105 119 14 52 12 81 -9 127 -10 22 -484 741 -1054 1598 l-1037 1558
-2 1327 c-3 1227 -4 1329 -20 1358 -24 44 -81 91 -125 103 -25 7 -284 11 -753
11 -580 -1 -722 -3 -753 -15z"/>
</g>
</svg>
